<svg id="visual" viewBox="0 0 1920 300" width="1920" height="300" xmlns="http://www.w3.org/2000/svg" xmlns:xlink="http://www.w3.org/1999/xlink" version="1.1"><rect x="0" y="0" width="1920" height="300" fill="#0d0d0d"></rect><defs><linearGradient id="grad1_0" x1="84.4%" y1="0%" x2="100%" y2="100%"><stop offset="-78%" stop-color="#0d0d0d" stop-opacity="1"></stop><stop offset="178.00000000000006%" stop-color="#0d0d0d" stop-opacity="1"></stop></linearGradient></defs><defs><linearGradient id="grad2_0" x1="0%" y1="0%" x2="15.6%" y2="100%"><stop offset="-78%" stop-color="#0d0d0d" stop-opacity="1"></stop><stop offset="178.00000000000006%" stop-color="#0d0d0d" stop-opacity="1"></stop></linearGradient></defs><g transform="translate(1920, 0)"><path d="M0 300C-12.4 263.3 -24.9 226.7 -45.5 228.5C-66.1 230.4 -94.8 270.8 -114.8 277.2C-134.8 283.6 -145.9 256 -157.2 235.3C-168.5 214.6 -180 200.8 -182.4 182.4C-184.8 164.1 -178.1 141.2 -195.4 130.6C-212.6 119.9 -253.8 121.6 -264.2 109.4C-274.6 97.3 -254.2 71.3 -255 50.7C-255.8 30.2 -277.9 15.1 -300 0L0 0Z" fill="#833E15"></path></g><g transform="translate(0, 300)"><path d="M0 -300C17.7 -290.4 35.3 -280.8 55.2 -277.6C75.1 -274.3 97.2 -277.5 109.8 -265.2C122.4 -252.8 125.5 -224.8 144.4 -216.2C163.4 -207.5 198.1 -218.2 204.4 -204.4C210.6 -190.5 188.4 -152.2 204.5 -136.7C220.7 -121.1 275.2 -128.3 277.2 -114.8C279.1 -101.3 228.6 -67.1 223.6 -44.5C218.7 -21.9 259.3 -10.9 300 0L0 0Z" fill="#833E15"></path></g></svg>