<!--?xml version="1.0" standalone="no"?-->
              <svg id="sw-js-blob-svg" viewBox="0 0 100 100" xmlns="http://www.w3.org/2000/svg" version="1.1">
                    <defs> 
                        <linearGradient id="sw-gradient" x1="0" x2="1" y1="1" y2="0">
                            <stop id="stop1" stop-color="rgba(248, 117, 55, 1)" offset="0%"></stop>
                            <stop id="stop2" stop-color="#F6D171" offset="100%"></stop>
                        </linearGradient>
                    </defs>
                <path fill="url(#sw-gradient)" d="M6.7,-10.7C9.8,-7,14.1,-6.5,19.2,-3.3C24.3,-0.1,30.2,5.8,29.4,10C28.7,14.2,21.3,16.7,15.3,19.3C9.3,21.9,4.7,24.6,1.4,22.6C-1.8,20.7,-3.7,14.2,-11.2,12C-18.7,9.9,-31.8,12.3,-36.5,9.2C-41.2,6.1,-37.5,-2.4,-31.4,-6.8C-25.2,-11.1,-16.7,-11.2,-11.1,-14C-5.5,-16.8,-2.7,-22.4,-0.5,-21.8C1.8,-21.1,3.7,-14.3,6.7,-10.7Z" width="100%" height="100%" transform="translate(50 50)" stroke-width="0" style="transition: 0.3s;"></path>
              </svg>